<svg id="Laag_1" data-name="Laag 1" xmlns="http://www.w3.org/2000/svg" viewBox="0 0 50 50"><defs><style>.cls-1{fill:#ed0f0f;}</style></defs><title>kunstmaan</title><path class="cls-1" d="M50,25A25,25,0,1,1,25.29,0,25,25,0,0,1,50,25ZM23.42,26.68c0-.09,0-.15,0-.2.35-1.46.72-2.9,1-4.36.57-2.65,1.15-5.3,1.64-8A3.12,3.12,0,0,0,23,10.24a6.66,6.66,0,0,0-3.12.59,16,16,0,0,0-6.31,5.09,10.74,10.74,0,0,0-2.19,4.68,4.7,4.7,0,0,0,1.87,4.92,6.38,6.38,0,0,0,4.13,1.12l.75,0c-.13.6-.24,1.16-.38,1.71a2.2,2.2,0,0,1-.31.74,15.14,15.14,0,0,0-1.91,4,4,4,0,0,0-.18,1.89,4.35,4.35,0,0,0,3.26,3.23A3.06,3.06,0,0,0,20.48,38a.74.74,0,0,0,.45-.56c.48-2.3,1-4.59,1.48-6.88a4.65,4.65,0,0,1,.12-.47,6.64,6.64,0,0,1,1.1.79,7.28,7.28,0,0,1,1.15,1.57c.82,1.56,1.56,3.17,2.34,4.75A13.93,13.93,0,0,0,28,38.72a2.07,2.07,0,0,0,1.77,1,6,6,0,0,0,5-2.1,3.12,3.12,0,0,0,.47-.78,2.17,2.17,0,0,0-.08-1.94.35.35,0,0,0-.44-.21c-.33.07-.66.11-1,.15a1.17,1.17,0,0,1-1.28-.61c-.24-.42-.44-.85-.67-1.27-.95-1.8-1.75-3.69-3.34-5.1.64-.64,1.31-1.25,1.92-1.92a57,57,0,0,0,4.3-5.6c.51-.71,1.08-1.38,1.65-2a2,2,0,0,1,1.43-.73.8.8,0,0,0,.74-.52,4.22,4.22,0,0,0,.18-.45,3.72,3.72,0,0,0-1.73-4.21,3.54,3.54,0,0,0-4.45.89,14.46,14.46,0,0,0-1.7,3C29.83,18.22,29,20.13,28,22a27,27,0,0,1-2.71,4.37.51.51,0,0,1-.29.22C24.51,26.64,24,26.65,23.42,26.68Z" transform="translate(0 0)"/><path class="cls-1" d="M19,23.3c-.57-.25-1.12-.45-1.64-.73A2.43,2.43,0,0,1,16,19.52a6.94,6.94,0,0,1,1.73-2.93c.4-.43.86-.8,1.3-1.19a2.23,2.23,0,0,1,.41-.27c.76-.42,1.25-.15,1.19.73a15.19,15.19,0,0,1-.36,2.31c-.38,1.63-.82,3.24-1.24,4.86C19,23.1,19,23.16,19,23.3Z" transform="translate(0 0)"/></svg>