<svg id="Laag_1" data-name="Laag 1" xmlns="http://www.w3.org/2000/svg" viewBox="0 0 50 50"><defs><style>.cls-1{fill:#ed0f0f;}</style></defs><title>putin</title><path class="cls-1" d="M39.14,17.65a4.16,4.16,0,0,1-.4,1.44.5.5,0,0,1-.72.2.87.87,0,0,1-.44.06.5.5,0,0,1-.42-.52v-.2c0-.12,0-.24,0-.36l0-.78c0-.81-.06-1.63-.12-2.44a17.08,17.08,0,0,0-1-4.56,10.08,10.08,0,0,0-6.82-6.41h-.09l-.24,0-.51,0h-3.2c-1.41,0-2.88,0-4.32,0a4,4,0,0,0-1.36.26,2.85,2.85,0,0,0-.31.12A9.92,9.92,0,0,0,14,9.27a15.29,15.29,0,0,0-1.35,4.36,26,26,0,0,0-.32,4.52,3.55,3.55,0,0,1-.06.57l0,.17a.5.5,0,0,1-.24.37.49.49,0,0,1-.43,0l-.14,0a2.05,2.05,0,0,1-.43-.18.94.94,0,0,1-.52-.63q-.06-.43-.09-.87a5.9,5.9,0,0,0-.23,1.31,12.12,12.12,0,0,0,.35,3.92,7.33,7.33,0,0,0,1.19,2.76c.42.54.64.57,1,.44a.48.48,0,0,1,.44,0,.47.47,0,0,1,.25.36l.51,3.94a10.1,10.1,0,0,0,.17,1.16A6.45,6.45,0,0,0,15.43,34a1.19,1.19,0,0,1,.28.84v3.08c0,1.85,0,3.7,0,5.55,3,1.22,6,2.38,8.93,3.55a.32.32,0,0,0,.3,0q4.45-1.76,8.93-3.49,0-4.39,0-8.77a1.25,1.25,0,0,1,.25-.72,6.44,6.44,0,0,0,1.49-3.3c.07-.8.18-1.6.29-2.37l.15-1,.13-1a.49.49,0,0,1,.22-.34.52.52,0,0,1,.4-.07c.47.12.57.07.79-.19a4.59,4.59,0,0,0,.72-1,11.6,11.6,0,0,0,1-6.57A3.67,3.67,0,0,0,39.14,17.65Zm-17.93,2.1a5,5,0,0,1-2.1.46,3.36,3.36,0,0,1-2.32-.79.5.5,0,0,1,0-.7,2.75,2.75,0,0,1,2-.89A3.55,3.55,0,0,1,21.35,19a.46.46,0,0,1,.13.43A.48.48,0,0,1,21.21,19.75ZM23.3,18a.51.51,0,0,1-.61,0c-1.78-1.31-3.69-1.3-6,0a.47.47,0,0,1-.25.07.52.52,0,0,1-.32-.11.6.6,0,0,1-.2-.63l.1-.23a2.14,2.14,0,0,0,.16-.39,2,2,0,0,1,1.21-1.34A6.71,6.71,0,0,1,20,14.74a3.23,3.23,0,0,1,2.91,1.57,7.22,7.22,0,0,1,.56,1.11A.52.52,0,0,1,23.3,18Zm9.48,1.38a3.37,3.37,0,0,1-2.35.81,5.06,5.06,0,0,1-2.08-.45A.51.51,0,0,1,28.2,19a3.65,3.65,0,0,1,2.53-1.12,2.83,2.83,0,0,1,2.06.87.5.5,0,0,1,.14.35A.45.45,0,0,1,32.78,19.4Zm.78-1.33a.53.53,0,0,1-.34.13.59.59,0,0,1-.23-.05L32.67,18,32,17.63a4.74,4.74,0,0,0-3.89-.26,6.37,6.37,0,0,0-.86.44l-.43.24a.5.5,0,0,1-.57-.06.52.52,0,0,1-.14-.56,3.81,3.81,0,0,1,2.59-2.6,4.27,4.27,0,0,1,2.65.29,13.38,13.38,0,0,1,1.32.63,1.11,1.11,0,0,1,.48.54c.14.29.26.59.4.89l.14.32A.53.53,0,0,1,33.56,18.07Z"/><path class="cls-1" d="M0,0V50H50V0ZM8,48.27V15.58a.5.5,0,0,1,.5-.5h2.07l0-.37c0-.51.08-1,.15-1.51a16.49,16.49,0,0,1,1.17-4.46,11.33,11.33,0,0,1,7.77-6.83,19.86,19.86,0,0,1,9-.3A12.84,12.84,0,0,1,33.9,3.8a2.93,2.93,0,0,1,1.34,1.82l.07,0,.1,0a1.66,1.66,0,0,1,1,.7,3.34,3.34,0,0,0,.25.4c.09.14.18.27.26.41A14.71,14.71,0,0,1,38.43,11a22,22,0,0,1,.62,4.1h2.5a.5.5,0,0,1,.5.5V48.27m-1,0H9"/></svg>